<svg width="306" height="353" viewBox="0 0 306 353" fill="none" xmlns="http://www.w3.org/2000/svg">
<g opacity="0.1" clip-path="url(#clip0_0_425)">
<path d="M209.01 67.7582C212.19 64.1295 215.03 60.2965 218.449 57.1307C222.659 53.2365 226.684 49.104 231.28 45.6318C236.887 41.3972 242.767 37.6459 248.9 34.2623C258.658 28.877 269.122 26.3308 280.124 26.7121C287.008 26.9504 293.573 28.9043 300.138 31.3824C308.26 34.4461 314.692 39.4432 320.38 45.7544C325.262 51.1736 328.402 57.7366 331.435 64.3473C333.111 68.0101 334.049 71.8703 335.16 75.7305C336.863 81.6672 337.042 87.9443 339.417 93.6699C339.63 94.1805 339.763 94.7592 339.789 95.3174C340.242 104.801 341.372 114.326 340.887 123.762C340.514 130.972 340.847 138.311 339.643 145.391C338.406 152.703 338.086 160.172 336.364 167.354C333.976 177.287 331.608 187.227 328.541 197.003C326.007 205.078 323.586 213.248 320.925 221.261C319.216 226.408 316.621 231.466 314.28 236.504C311.599 242.277 309.025 248.112 306.132 253.77C302.852 260.19 299.041 266.303 295.236 272.424C291.485 278.456 287.367 284.215 283.429 290.098C279.332 296.211 274.35 301.617 269.74 307.322C262.809 315.907 254.528 323.028 246.3 330.15C239.654 335.903 232.244 340.845 224.402 344.624C219.094 347.177 213.334 349.042 207.5 350.642C201.74 352.222 196.219 351.8 190.585 352.167C184.292 352.576 178.532 350.166 172.865 348.021C161.324 343.65 152.098 335.807 144.276 326.242C141.169 322.443 138.183 318.494 136.28 313.858C135.329 311.536 133.5 310.706 131.245 310.794C123.562 311.101 116.152 309.201 108.922 307.111C94.574 302.965 80.9446 296.919 68.0935 289.063C62.6192 285.72 56.9586 282.35 52.5086 277.932C47.1074 272.56 40.5155 268.516 36.0589 262.041C33.0058 257.602 28.7287 254.13 25.7421 249.542C20.7134 241.814 15.4918 234.128 12.2192 225.482C10.6294 221.295 9.49196 216.72 8.12171 212.41C6.18606 206.331 6.33905 200.033 4.88898 194.13C3.0265 186.533 5.05527 179.452 5.66057 172.324C6.25258 165.353 9.8445 158.81 14.4541 153.234C18.8842 147.876 23.2277 142.457 27.6777 137.112C32.3206 131.537 38.5533 128.568 45.0055 125.743C52.1161 122.625 59.7456 123.026 67.1357 121.263C62.3731 126.254 57.657 131.046 54.8234 137.385C52.5285 142.518 50.7658 147.726 50.3335 153.466C49.655 162.439 51.2913 171.058 54.0518 179.377C57.8433 190.794 62.8187 201.64 69.956 211.457C75.3905 218.926 81.0843 226.067 87.5431 232.61C92.1794 237.307 97.6404 240.807 102.982 244.531C110.086 249.48 117.835 253.177 125.817 256.043C131.298 258.011 136.925 260.503 143.012 260.115C145.985 259.924 148.539 261.572 151.466 261.578C161.836 261.606 171.654 259.413 179.762 252.619C185.855 247.513 189.986 240.868 192.035 232.753C193.698 226.183 194.336 219.702 193.751 213.03C193.079 205.384 191.556 197.977 187.538 191.169C190.232 189.821 191.849 191.999 193.152 193.109C200.03 198.978 206.842 204.914 211.551 212.989C218.449 224.828 220.464 237.634 218.688 250.992C217.591 259.236 213.852 266.766 210.034 274.078C204.394 284.876 195.82 293.018 185.962 299.513C180.727 302.965 174.661 305.157 168.707 307.452C161.55 310.209 154.067 310.413 146.856 312.319C146.577 312.394 146.344 312.687 145.919 313.007C148.107 317.453 152.337 319.025 156.242 320.884C165.255 325.187 174.987 326.358 184.532 324.642C188.942 323.852 193.844 323.144 198.101 320.264C200.669 318.535 204.028 317.487 207.068 316.275C208.817 315.574 209.908 314.212 211.398 313.3C216.766 310.039 221.415 305.824 226.198 301.733C234.074 294.986 240.32 286.734 246.592 278.646C250.483 273.629 253.763 267.855 257.029 262.212C261.931 253.742 266.727 245.246 270.878 236.368C273.937 229.832 277.483 223.46 279.744 216.645C282.059 209.66 285.066 202.974 287.374 195.989C288.87 191.468 289.888 186.778 291.771 182.339C293.034 179.35 292.808 175.776 293.7 172.474C296.34 162.718 297.644 152.621 298.622 142.627C299.566 133.034 300.172 123.19 297.89 113.556C296.906 109.403 296.739 105.108 296.048 100.9C295.043 94.7932 292.988 89.2446 290.447 83.8117C286.542 75.4582 281.707 67.8875 273.804 62.7202C270.006 60.242 265.829 59.3638 261.652 58.1383C256.051 56.4908 250.397 55.9733 244.683 56.5112C237.02 57.2328 229.604 59.1664 222.52 62.3117C218.602 64.0478 214.584 65.5796 211.099 68.2075C210.673 68.5275 210.061 68.6092 209.023 67.765L209.01 67.7582Z" fill="white"/>
<path d="M185.969 100.893C185.67 105.952 182.138 108.498 179.776 111.732C174.309 119.214 167.025 124.545 158.457 127.248C154.413 128.521 150.043 129.848 145.54 129.692C138.569 129.447 131.558 130.264 124.634 129.181C115.68 127.785 107.452 124.354 99.5433 119.806C95.9979 117.771 91.8406 116.777 87.9693 115.347C78.9828 112.025 69.8367 111.957 60.5643 112.229C55.7019 112.372 51.1122 114.088 46.3961 114.898C41.128 115.803 36.1458 117.621 31.3233 119.514C25.37 121.842 20.1218 125.906 14.9468 129.876C11.0157 132.892 7.98248 136.609 5.14885 140.598C4.11118 142.062 3.11342 143.492 2.76754 145.364C2.58794 146.338 1.67 146.801 0.665595 146.378C-0.125959 146.045 -0.0860486 145.269 0.18002 144.636C2.14227 139.992 1.50371 134.907 2.59459 130.046C4.3839 122.06 6.5191 114.319 9.86491 106.878C13.4701 98.8646 18.0798 91.6684 24.2459 85.4458C31.463 78.1543 39.5382 72.701 49.4892 69.8825C57.551 67.6018 65.5796 66.5737 73.9009 66.6759C81.2045 66.7644 87.823 69.3787 94.7141 71.2033C99.683 72.5172 103.361 75.8328 107.698 78.0726C115.674 82.1916 122.532 88.1418 129.848 93.3296C134.505 96.6316 139.321 99.3684 144.469 101.806C153.196 105.938 162.269 105.489 171.289 104.801C176.158 104.427 180.907 102.31 185.976 100.907L185.969 100.893Z" fill="white"/>
<path d="M205.87 44.706C207.227 69.474 184.418 89.7894 162.321 89.4149C138.861 89.0201 119.172 68.8408 118.992 44.3043C118.839 22.5728 138.508 -0.18668 163.672 0.208191C185.323 0.555405 207.859 21.0342 205.863 44.6992L205.87 44.706Z" fill="white"/>
<path d="M205.671 187.166C191.004 187.418 177.814 173.577 178.373 158.497C179.018 141.054 192.062 130.332 206.277 129.903C219.128 129.515 234.433 142.879 234.32 158.967C234.227 172.719 220.312 188.201 205.678 187.166H205.671Z" fill="white"/>
<path d="M122.837 232.126C115.973 228.511 112.401 223.364 113.924 217.85C115.188 213.288 116.299 208.55 119.179 204.54C122.046 200.55 124.7 196.37 128.651 193.409C134.331 189.147 140.218 185.477 147.641 185.143C155.151 184.81 161.963 186.178 168.934 189.555C177.574 193.742 183.261 200.36 186.281 208.877C188.077 213.935 188.762 219.763 187.492 225.802C186.487 230.581 184.479 234.85 183.308 239.465C183.062 240.446 182.51 240.718 181.612 240.623C180.228 240.473 180.208 239.431 180.148 238.383C179.949 234.781 180.481 231.071 179.084 227.64C176.117 220.335 171.162 215.385 163.572 212.893C158.869 211.348 154.22 211.314 149.517 211.498C139.167 211.899 131.677 217.087 126.642 226.326C125.544 228.334 124.68 230.628 122.824 232.133L122.837 232.126Z" fill="white"/>
</g>
<defs>
<clipPath id="clip0_0_425">
<rect width="341" height="352" fill="white" transform="translate(0 0.208008)"/>
</clipPath>
</defs>
</svg>
