<svg width="341" height="352" viewBox="0 0 341 352" fill="none" xmlns="http://www.w3.org/2000/svg">
<g opacity="0.1" clip-path="url(#clip0_0_425)">
<path d="M209.01 67.5502C212.19 63.9215 215.03 60.0885 218.449 56.9227C222.659 53.0285 226.684 48.896 231.28 45.4238C236.887 41.1892 242.767 37.4379 248.9 34.0543C258.658 28.669 269.122 26.1228 280.124 26.5041C287.008 26.7423 293.573 28.6963 300.138 31.1744C308.26 34.2381 314.692 39.2352 320.38 45.5464C325.262 50.9656 328.402 57.5286 331.435 64.1393C333.111 67.8021 334.049 71.6623 335.16 75.5225C336.863 81.4592 337.042 87.7362 339.417 93.4619C339.63 93.9725 339.763 94.5512 339.789 95.1094C340.242 104.593 341.372 114.118 340.887 123.554C340.514 130.764 340.847 138.103 339.643 145.183C338.406 152.495 338.086 159.964 336.364 167.146C333.976 177.079 331.608 187.019 328.541 196.795C326.007 204.87 323.586 213.04 320.925 221.053C319.216 226.2 316.621 231.258 314.28 236.296C311.599 242.069 309.025 247.904 306.132 253.562C302.852 259.982 299.041 266.095 295.236 272.216C291.485 278.248 287.367 284.007 283.429 289.89C279.332 296.003 274.35 301.409 269.74 307.114C262.809 315.699 254.528 322.82 246.3 329.942C239.654 335.695 232.244 340.637 224.402 344.416C219.094 346.969 213.334 348.834 207.5 350.434C201.74 352.014 196.219 351.592 190.585 351.959C184.292 352.368 178.532 349.958 172.865 347.813C161.324 343.442 152.098 335.599 144.276 326.034C141.169 322.235 138.183 318.286 136.28 313.65C135.329 311.328 133.5 310.498 131.245 310.586C123.562 310.893 116.152 308.993 108.922 306.903C94.574 302.757 80.9446 296.711 68.0935 288.855C62.6192 285.512 56.9586 282.142 52.5086 277.723C47.1074 272.352 40.5155 268.308 36.0589 261.833C33.0058 257.394 28.7287 253.922 25.7421 249.334C20.7134 241.606 15.4918 233.92 12.2192 225.274C10.6294 221.087 9.49196 216.512 8.12171 212.202C6.18606 206.123 6.33905 199.825 4.88898 193.922C3.0265 186.325 5.05527 179.244 5.66057 172.116C6.25258 165.145 9.8445 158.602 14.4541 153.026C18.8842 147.668 23.2277 142.249 27.6777 136.904C32.3206 131.329 38.5533 128.36 45.0055 125.535C52.1161 122.417 59.7456 122.818 67.1357 121.055C62.3731 126.046 57.657 130.838 54.8234 137.177C52.5285 142.31 50.7658 147.518 50.3335 153.258C49.655 162.231 51.2913 170.85 54.0518 179.169C57.8433 190.586 62.8187 201.432 69.956 211.249C75.3905 218.718 81.0843 225.859 87.5431 232.402C92.1794 237.099 97.6404 240.599 102.982 244.323C110.086 249.272 117.835 252.969 125.817 255.835C131.298 257.803 136.925 260.295 143.012 259.907C145.985 259.716 148.539 261.364 151.466 261.37C161.836 261.398 171.654 259.205 179.762 252.411C185.855 247.305 189.986 240.66 192.035 232.545C193.698 225.975 194.336 219.494 193.751 212.822C193.079 205.176 191.556 197.769 187.538 190.961C190.232 189.613 191.849 191.791 193.152 192.901C200.03 198.77 206.842 204.706 211.551 212.781C218.449 224.62 220.464 237.426 218.688 250.784C217.591 259.028 213.852 266.558 210.034 273.87C204.394 284.668 195.82 292.81 185.962 299.305C180.727 302.757 174.661 304.949 168.707 307.243C161.55 310.001 154.067 310.205 146.856 312.111C146.577 312.186 146.344 312.479 145.919 312.799C148.107 317.245 152.337 318.817 156.242 320.676C165.255 324.979 174.987 326.15 184.532 324.434C188.942 323.644 193.844 322.936 198.101 320.056C200.669 318.327 204.028 317.279 207.068 316.067C208.817 315.366 209.908 314.004 211.398 313.092C216.766 309.831 221.415 305.616 226.198 301.525C234.074 294.778 240.32 286.526 246.592 278.438C250.483 273.421 253.763 267.647 257.029 262.004C261.931 253.534 266.727 245.038 270.878 236.16C273.937 229.624 277.483 223.252 279.744 216.437C282.059 209.452 285.066 202.766 287.374 195.781C288.87 191.26 289.888 186.57 291.771 182.131C293.034 179.142 292.808 175.568 293.7 172.266C296.34 162.51 297.644 152.413 298.622 142.419C299.566 132.826 300.172 122.982 297.89 113.348C296.906 109.195 296.739 104.9 296.048 100.692C295.043 94.5852 292.988 89.0366 290.447 83.6037C286.542 75.2502 281.707 67.6795 273.804 62.5122C270.006 60.034 265.829 59.1558 261.652 57.9303C256.051 56.2828 250.397 55.7653 244.683 56.3032C237.02 57.0248 229.604 58.9583 222.52 62.1037C218.602 63.8398 214.584 65.3716 211.099 67.9995C210.673 68.3195 210.061 68.4012 209.023 67.557L209.01 67.5502Z" fill="white"/>
<path d="M185.969 100.685C185.67 105.744 182.138 108.29 179.776 111.524C174.309 119.006 167.025 124.337 158.457 127.04C154.413 128.313 150.043 129.64 145.54 129.484C138.569 129.239 131.558 130.056 124.634 128.973C115.68 127.577 107.452 124.146 99.5433 119.598C95.9979 117.563 91.8406 116.569 87.9693 115.139C78.9828 111.817 69.8367 111.749 60.5643 112.021C55.7019 112.164 51.1122 113.88 46.3961 114.69C41.128 115.595 36.1458 117.413 31.3233 119.306C25.37 121.634 20.1218 125.698 14.9468 129.668C11.0157 132.684 7.98248 136.401 5.14885 140.39C4.11118 141.854 3.11342 143.284 2.76754 145.156C2.58794 146.13 1.67 146.593 0.665595 146.17C-0.125959 145.837 -0.0860486 145.061 0.18002 144.428C2.14227 139.784 1.50371 134.699 2.59459 129.838C4.3839 121.852 6.5191 114.111 9.86491 106.67C13.4701 98.6566 18.0798 91.4604 24.2459 85.2378C31.463 77.9463 39.5382 72.493 49.4892 69.6745C57.551 67.3938 65.5796 66.3657 73.9009 66.4678C81.2045 66.5564 87.823 69.1707 94.7141 70.9952C99.683 72.3092 103.361 75.6248 107.698 77.8646C115.674 81.9835 122.532 87.9338 129.848 93.1216C134.505 96.4236 139.321 99.1604 144.469 101.598C153.196 105.73 162.269 105.281 171.289 104.593C176.158 104.219 180.907 102.102 185.976 100.699L185.969 100.685Z" fill="white"/>
<path d="M205.87 44.498C207.227 69.2659 184.418 89.5814 162.321 89.2069C138.861 88.812 119.172 68.6328 118.992 44.0963C118.839 22.3648 138.508 -0.394688 163.672 0.000182818C185.323 0.347397 207.859 20.8262 205.863 44.4912L205.87 44.498Z" fill="white"/>
<path d="M205.671 186.958C191.004 187.21 177.814 173.369 178.373 158.289C179.018 140.846 192.062 130.124 206.277 129.695C219.128 129.307 234.433 142.671 234.32 158.759C234.227 172.511 220.312 187.993 205.678 186.958H205.671Z" fill="white"/>
<path d="M122.837 231.918C115.973 228.303 112.401 223.156 113.924 217.642C115.188 213.08 116.299 208.342 119.179 204.332C122.046 200.342 124.7 196.162 128.651 193.201C134.331 188.939 140.218 185.269 147.641 184.935C155.151 184.602 161.963 185.97 168.934 189.347C177.574 193.534 183.261 200.152 186.281 208.669C188.077 213.727 188.762 219.555 187.492 225.594C186.487 230.373 184.479 234.642 183.308 239.257C183.062 240.238 182.51 240.51 181.612 240.415C180.228 240.265 180.208 239.223 180.148 238.175C179.949 234.573 180.481 230.863 179.084 227.432C176.117 220.127 171.162 215.177 163.572 212.685C158.869 211.14 154.22 211.106 149.517 211.29C139.167 211.691 131.677 216.879 126.642 226.118C125.544 228.126 124.68 230.42 122.824 231.925L122.837 231.918Z" fill="white"/>
</g>
<defs>
<clipPath id="clip0_0_425">
<rect width="341" height="352" fill="white"/>
</clipPath>
</defs>
</svg>
