<svg width="672" height="832" viewBox="0 0 672 832" fill="none" xmlns="http://www.w3.org/2000/svg">
<path d="M523.865 105.537C531.986 96.28 539.241 86.5016 547.974 78.4252C558.728 68.4905 569.007 57.9479 580.748 49.09C595.07 38.2868 610.09 28.7168 625.755 20.0847C650.679 6.34625 677.405 -0.149541 705.506 0.823091C723.091 1.43099 739.86 6.41573 756.63 12.7378C777.375 20.5536 793.804 33.3021 808.331 49.4026C820.801 63.2279 828.821 79.971 836.568 96.8358C840.85 106.18 843.245 116.028 846.083 125.876C850.432 141.021 850.891 157.035 856.956 171.642C857.5 172.944 857.84 174.421 857.908 175.845C859.063 200.039 861.951 224.337 860.711 248.41C859.76 266.803 860.609 285.526 857.534 303.59C854.374 322.243 853.558 341.296 849.158 359.62C843.058 384.961 837.01 410.319 829.178 435.26C822.704 455.859 816.52 476.701 809.724 497.143C805.357 510.274 798.731 523.179 792.751 536.031C785.904 550.76 779.328 565.644 771.938 580.078C763.562 596.456 753.826 612.053 744.108 627.667C734.525 643.055 724.009 657.749 713.95 672.755C703.484 688.352 690.759 702.143 678.985 716.698C661.281 738.599 640.128 756.767 619.111 774.934C602.138 789.61 583.211 802.22 563.18 811.859C549.622 818.372 534.908 823.131 520.008 827.213C505.294 831.242 491.193 830.166 476.802 831.103C460.729 832.146 446.016 825.997 431.54 820.526C402.062 809.376 378.497 789.367 358.516 764.965C350.582 755.273 342.953 745.199 338.094 733.371C335.665 727.449 330.992 725.33 325.233 725.556C305.609 726.337 286.682 721.491 268.214 716.159C231.566 705.582 196.753 690.159 163.928 670.116C149.945 661.588 135.487 652.99 124.12 641.718C110.324 628.014 93.4872 617.698 82.1038 601.18C74.3053 589.856 63.3806 580.998 55.752 569.292C42.9075 549.579 29.5702 529.97 21.2111 507.912C17.1504 497.23 14.2451 485.559 10.7451 474.564C5.801 459.054 6.19177 442.989 2.48792 427.93C-2.26932 408.547 2.91267 390.484 4.45878 372.299C5.9709 354.514 15.1456 337.823 26.9198 323.598C38.2352 309.929 49.3298 296.104 60.6962 282.47C72.5553 268.245 88.4751 260.672 104.956 253.464C123.118 245.51 142.606 246.534 161.482 242.036C149.317 254.767 137.271 266.994 130.033 283.164C124.171 296.26 119.669 309.547 118.565 324.189C116.832 347.08 121.011 369.069 128.062 390.293C137.746 419.42 150.455 447.088 168.686 472.133C182.566 491.186 197.11 509.405 213.607 526.096C225.45 538.081 239.399 547.008 253.042 556.509C271.187 569.135 290.981 578.567 311.369 585.879C325.369 590.898 339.742 597.255 355.288 596.265C362.883 595.779 369.407 599.982 376.883 599.999C403.37 600.069 428.448 594.476 449.159 577.142C464.722 564.116 475.273 547.164 480.506 526.461C484.753 509.701 486.384 493.166 484.889 476.145C483.173 456.64 479.282 437.743 469.02 420.375C475.901 416.936 480.03 422.494 483.36 425.325C500.928 440.296 518.326 455.442 530.355 476.041C547.974 506.244 553.122 538.914 548.585 572.991C545.782 594.024 536.233 613.234 526.481 631.888C512.073 659.434 490.173 680.207 464.994 696.776C451.622 705.582 436.127 711.174 420.921 717.028C402.64 724.062 383.526 724.583 365.109 729.446C364.395 729.637 363.8 730.384 362.713 731.2C368.303 742.542 379.109 746.554 389.082 751.296C412.103 762.272 436.96 765.26 461.341 760.883C472.605 758.868 485.127 757.062 496.001 749.715C502.559 745.303 511.139 742.629 518.903 739.537C523.372 737.748 526.158 734.275 529.964 731.947C543.675 723.628 555.551 712.877 567.767 702.438C587.883 685.226 603.837 664.176 619.859 643.542C629.798 630.741 638.174 616.013 646.516 601.614C659.038 580.008 671.288 558.332 681.89 535.684C689.705 519.01 698.761 502.753 704.538 485.368C710.45 467.548 718.13 450.492 724.026 432.672C727.848 421.139 730.448 409.172 735.256 397.848C738.484 390.223 737.906 381.105 740.183 372.681C746.928 347.792 750.258 322.035 752.756 296.538C755.168 272.066 756.715 246.951 750.887 222.375C748.372 211.78 747.948 200.821 746.181 190.087C743.615 174.507 738.365 160.352 731.875 146.492C721.902 125.181 709.55 105.867 689.366 92.6847C679.664 86.3626 668.994 84.1221 658.325 80.9958C644.019 76.7926 629.577 75.4726 614.983 76.8447C595.41 78.6858 576.466 83.6184 558.372 91.6426C548.364 96.0716 538.102 99.9795 529.199 106.684C528.112 107.5 526.549 107.708 523.899 105.555L523.865 105.537Z" fill="#5077F4"/>
</svg>
